<svg width="91" height="23" viewBox="0 0 91 23" fill="none" xmlns="http://www.w3.org/2000/svg">
<path d="M0.855957 23V7.00001H4.82396V23H0.855957ZM0.855957 4.56801V0.600006H4.82396V4.56801H0.855957Z" fill="white"/>
<path d="M8.71396 23V0.600006H12.746L22.314 15.064V0.600006H26.41V23H23.05L12.81 7.64001V23H8.71396Z" fill="white"/>
<path d="M31.339 23V0.600006H39.531C41.0776 0.600006 42.427 0.845339 43.579 1.33601C44.7416 1.82667 45.643 2.57334 46.283 3.57601C46.923 4.57867 47.243 5.84801 47.243 7.38401C47.243 9.02667 46.891 10.3333 46.187 11.304C45.4936 12.264 44.5763 13.0267 43.435 13.592L48.491 23H43.915L39.595 14.68C39.563 14.68 39.5363 14.68 39.515 14.68C39.4936 14.68 39.467 14.68 39.435 14.68H35.435V23H31.339ZM35.435 11.256H38.443C40.1283 11.256 41.3016 10.9147 41.963 10.232C42.6243 9.53867 42.955 8.66401 42.955 7.60801C42.955 6.48801 42.6296 5.61334 41.979 4.98401C41.3283 4.34401 40.203 4.02401 38.603 4.02401H35.435V11.256Z" fill="white"/>
<path d="M50.5435 23V7.00001H54.5115V23H50.5435ZM50.5435 4.56801V0.600006H54.5115V4.56801H50.5435Z" fill="white"/>
<path d="M62.7847 23V4.56801H56.4487V0.600006H73.2167V4.56801H66.8807V23H62.7847Z" fill="white"/>
<path d="M76.1515 23V0.600006H90.4875V4.56801H80.3435V9.33601H88.2155V13.304H80.3435V19.032H90.8075V23H76.1515Z" fill="white"/>
</svg>
